# xmcd
#
# Track frame offsets: 
#        150
#        10928
#        23809
#        37874
#        55927
#        68837
#        81043
#        99067
#        112124
#        128454
#        142219
#        156249
#        172498
#        183952
#
# Disc length: 2579 seconds
#
# Revision: 2
# Processed by: cddbd v1.5.2PL0 Copyright (c) Steve Scherf et al.
# Submitted via: ExactAudioCopyFreeDBPlugin 1.0
#
DISCID=b50a110e
DTITLE=Various Artist - The Dukes of Hazzard
DYEAR=1981
DGENRE=Country
TTITLE0=The Hazzard County Boys - Good Ol' Boys
TTITLE1=Johnny Cash - The General Lee
TTITLE2=Boss Hogg (Sorrell Burke and HC Boys) - Laughing All The Way T
TTITLE2=o The Bank
TTITLE3=Tom Wopat - Up On Cripple Creek
TTITLE4=Doug Kershaw and HC Boys - Cover Girl Eyes
TTITLE5=John Schneider - In The Driver's Seat
TTITLE6=James Best (Rosco) - Flash
TTITLE7=Catherine Bach - Down Home American Girl
TTITLE8=Boss Hogg (Sorrell Burke) - Duelin' Dukes
TTITLE9=Doug Kershaw and HC Boys - Keep Between Them Ditches
TTITLE10=Doug Kershaw and HC Boys - Ballad Of The General Lee
TTITLE11=John Schneider - Them Good Ol' Boys Are Bad
TTITLE12=Waylon Jennings and Willie Nelson - Mamas Don't Let Your Babies
TTITLE12=Grow Up To Be Cowboys
TTITLE13=Waylon Jennings - Theme From ''The Dukes Of Hazzard'' (Good O
TTITLE13=l' Boys)
EXTD=
EXTT0=
EXTT1=
EXTT2=
EXTT3=
EXTT4=
EXTT5=
EXTT6=
EXTT7=
EXTT8=
EXTT9=
EXTT10=
EXTT11=
EXTT12=
EXTT13=
PLAYORDER=
